<svg xmlns="http://www.w3.org/2000/svg" viewBox="0 0 220 220" width="128" height="128">
  <!-- Background Circle -->
  <circle cx="110" cy="110" r="100" fill="url(#gradient)" stroke="#1E90FF" stroke-width="3" />
  
  <!-- Gradient Definition -->
  <defs>
    <radialGradient id="gradient" cx="50%" cy="50%" r="50%">
      <stop offset="0%" style="stop-color:#1E90FF;stop-opacity:1" />
      <stop offset="100%" style="stop-color:#000428;stop-opacity:1" />
    </radialGradient>
  </defs>
  
  <!-- Outer Circuit Pattern (removed innermost circle) -->
  <g>
    <circle cx="110" cy="110" r="90" fill="none" stroke="#87CEFA" stroke-width="2" />
    <circle cx="110" cy="110" r="80" fill="none" stroke="#87CEFA" stroke-width="2" />
    <line x1="110" y1="10" x2="110" y2="30" stroke="#87CEFA" stroke-width="2" />
    <line x1="110" y1="190" x2="110" y2="210" stroke="#87CEFA" stroke-width="2" />
    <line x1="10" y1="110" x2="30" y2="110" stroke="#87CEFA" stroke-width="2" />
    <line x1="190" y1="110" x2="210" y2="110" stroke="#87CEFA" stroke-width="2" />
  </g>
  
  <!-- AI Chip -->
  <rect x="70" y="70" width="80" height="80" rx="10" fill="#000428" stroke="#1E90FF" stroke-width="2" />
  <g>
    <line x1="70" y1="90" x2="150" y2="90" stroke="#87CEFA" stroke-width="1" />
    <line x1="70" y1="130" x2="150" y2="130" stroke="#87CEFA" stroke-width="1" />
    <line x1="90" y1="70" x2="90" y2="150" stroke="#87CEFA" stroke-width="1" />
    <line x1="130" y1="70" x2="130" y2="150" stroke="#87CEFA" stroke-width="1" />
  </g>
  
  <!-- AI Text -->
  <text x="110" y="115" font-family="Arial, sans-serif" font-size="38" fill="#FFFFFF" text-anchor="middle" dominant-baseline="middle">
    AI
  </text>
  
  <!-- Line Paths Definition -->
  <defs>
    <path id="topArc" d="M 30 104 A 95 95 0 0 1 190 104" />
    <path id="bottomArc" d="M 30 134 A 95 95 0 0 0 190 134" />
  </defs>
  
  <!-- Markdown Text (Top Arc) -->
  <text font-family="Arial, sans-serif" font-size="20" fill="#FFFFFF" letter-spacing="3">
    <textPath href="#topArc" startOffset="50%" text-anchor="middle">
      Markdown
    </textPath>
  </text>
  
  <!-- Workflow Text (Bottom Arc) -->
  <text font-family="Arial, sans-serif" font-size="16" fill="#FFFFFF" letter-spacing="4">
    <textPath href="#bottomArc" startOffset="50%" text-anchor="middle">
      Workflow
    </textPath>
  </text>
</svg>